<svg xmlns="http://www.w3.org/2000/svg" xmlns:xlink="http://www.w3.org/1999/xlink" width="3500" zoomAndPan="magnify" viewBox="0 0 2625 749.999995" height="1000" preserveAspectRatio="xMidYMid meet" version="1.0"><defs><g/><clipPath id="fad33b83cd"><path d="M 0.71875 91 L 562 91 L 562 736 L 0.71875 736 Z M 0.71875 91 " clip-rule="nonzero"/></clipPath><clipPath id="05c6b9f21d"><rect x="0" width="562" y="0" height="645"/></clipPath><clipPath id="cc9d7390db"><path d="M 219.488281 0.707031 L 342.898438 0.707031 L 342.898438 247.523438 L 219.488281 247.523438 Z M 219.488281 0.707031 " clip-rule="nonzero"/></clipPath><clipPath id="5f54dde233"><path d="M 400 264 L 2223.359375 264 L 2223.359375 695 L 400 695 Z M 400 264 " clip-rule="nonzero"/></clipPath><clipPath id="b542f0154c"><rect x="0" width="1824" y="0" height="431"/></clipPath><clipPath id="ed3baf755d"><rect x="0" width="2224" y="0" height="736"/></clipPath></defs><g transform="matrix(1, 0, 0, 1, 30, 14)"><g clip-path="url(#ed3baf755d)"><g clip-path="url(#fad33b83cd)"><g transform="matrix(1, 0, 0, 1, -0.000000000000010658, 91)"><g clip-path="url(#05c6b9f21d)"><g fill="#ffffff" fill-opacity="1"><g transform="translate(1.140561, 572.34491)"><g><path d="M 535.734375 -560.078125 L 280.046875 25.875 L 24.359375 -560.078125 L 156.765625 -560.078125 L 284.609375 -244.28125 L 404.859375 -560.078125 Z M 535.734375 -560.078125 "/></g></g></g></g></g></g><g clip-path="url(#cc9d7390db)"><path fill="#165d94" d="M 342.914062 124.132812 L 341.90625 124.132812 L 281.203125 0.707031 L 219.488281 124.132812 L 281.203125 247.554688 Z M 342.914062 124.132812 " fill-opacity="1" fill-rule="nonzero"/></g><g clip-path="url(#5f54dde233)"><g transform="matrix(1, 0, 0, 1, 400, 264)"><g clip-path="url(#b542f0154c)"><g fill="#ffffff" fill-opacity="1"><g transform="translate(6.37039, 341.603859)"><g><path d="M 191.875 -52.90625 L 77.234375 -52.90625 L 55.375 0 L -3.171875 0 L 106.875 -246.890625 L 163.296875 -246.890625 L 273.703125 0 L 213.734375 0 Z M 173.875 -96.28125 L 134.734375 -190.8125 L 95.578125 -96.28125 Z M 173.875 -96.28125 "/></g></g></g><g fill="#ffffff" fill-opacity="1"><g transform="translate(276.539674, 341.603859)"><g><path d="M 255.703125 -246.890625 L 255.703125 0 L 208.796875 0 L 85.703125 -149.90625 L 85.703125 0 L 29.28125 0 L 29.28125 -246.890625 L 76.53125 -246.890625 L 199.28125 -97 L 199.28125 -246.890625 Z M 255.703125 -246.890625 "/></g></g></g><g fill="#ffffff" fill-opacity="1"><g transform="translate(561.522419, 341.603859)"><g><path d="M 80.421875 -200.328125 L 1.40625 -200.328125 L 1.40625 -246.890625 L 216.5625 -246.890625 L 216.5625 -200.328125 L 137.546875 -200.328125 L 137.546875 0 L 80.421875 0 Z M 80.421875 -200.328125 "/></g></g></g><g fill="#ffffff" fill-opacity="1"><g transform="translate(779.491897, 341.603859)"><g><path d="M 255.703125 -246.890625 L 255.703125 0 L 198.578125 0 L 198.578125 -101.21875 L 86.40625 -101.21875 L 86.40625 0 L 29.28125 0 L 29.28125 -246.890625 L 86.40625 -246.890625 L 86.40625 -149.546875 L 198.578125 -149.546875 L 198.578125 -246.890625 Z M 255.703125 -246.890625 "/></g></g></g><g fill="#ffffff" fill-opacity="1"><g transform="translate(1064.474642, 341.603859)"><g><path d="M 220.4375 -45.84375 L 220.4375 0 L 29.28125 0 L 29.28125 -246.890625 L 215.859375 -246.890625 L 215.859375 -201.046875 L 86.0625 -201.046875 L 86.0625 -147.4375 L 200.6875 -147.4375 L 200.6875 -102.984375 L 86.0625 -102.984375 L 86.0625 -45.84375 Z M 220.4375 -45.84375 "/></g></g></g><g fill="#ffffff" fill-opacity="1"><g transform="translate(1300.431974, 341.603859)"><g><path d="M 148.84375 4.234375 C 123.207031 4.234375 100.101562 -1.289062 79.53125 -12.34375 C 58.957031 -23.394531 42.847656 -38.617188 31.203125 -58.015625 C 19.566406 -77.421875 13.75 -99.234375 13.75 -123.453125 C 13.75 -147.671875 19.566406 -169.476562 31.203125 -188.875 C 42.847656 -208.269531 58.957031 -223.492188 79.53125 -234.546875 C 100.101562 -245.597656 123.207031 -251.125 148.84375 -251.125 C 174.46875 -251.125 197.507812 -245.597656 217.96875 -234.546875 C 238.425781 -223.492188 254.53125 -208.269531 266.28125 -188.875 C 278.039062 -169.476562 283.921875 -147.671875 283.921875 -123.453125 C 283.921875 -99.234375 278.039062 -77.421875 266.28125 -58.015625 C 254.53125 -38.617188 238.425781 -23.394531 217.96875 -12.34375 C 197.507812 -1.289062 174.46875 4.234375 148.84375 4.234375 Z M 148.84375 -44.4375 C 163.414062 -44.4375 176.582031 -47.785156 188.34375 -54.484375 C 200.101562 -61.191406 209.332031 -70.539062 216.03125 -82.53125 C 222.726562 -94.519531 226.078125 -108.160156 226.078125 -123.453125 C 226.078125 -138.734375 222.726562 -152.367188 216.03125 -164.359375 C 209.332031 -176.347656 200.101562 -185.691406 188.34375 -192.390625 C 176.582031 -199.097656 163.414062 -202.453125 148.84375 -202.453125 C 134.257812 -202.453125 121.085938 -199.097656 109.328125 -192.390625 C 97.578125 -185.691406 88.347656 -176.347656 81.640625 -164.359375 C 74.941406 -152.367188 71.59375 -138.734375 71.59375 -123.453125 C 71.59375 -108.160156 74.941406 -94.519531 81.640625 -82.53125 C 88.347656 -70.539062 97.578125 -61.191406 109.328125 -54.484375 C 121.085938 -47.785156 134.257812 -44.4375 148.84375 -44.4375 Z M 148.84375 -44.4375 "/></g></g></g><g fill="#ffffff" fill-opacity="1"><g transform="translate(1598.112057, 341.603859)"><g><path d="M 110.390625 4.234375 C 90.878906 4.234375 72.007812 1.585938 53.78125 -3.703125 C 35.5625 -8.992188 20.925781 -15.875 9.875 -24.34375 L 29.28125 -67.359375 C 39.851562 -59.609375 52.425781 -53.378906 67 -48.671875 C 81.582031 -43.972656 96.164062 -41.625 110.75 -41.625 C 126.96875 -41.625 138.957031 -44.03125 146.71875 -48.84375 C 154.476562 -53.664062 158.359375 -60.078125 158.359375 -68.078125 C 158.359375 -73.953125 156.066406 -78.828125 151.484375 -82.703125 C 146.898438 -86.585938 141.019531 -89.703125 133.84375 -92.046875 C 126.675781 -94.398438 116.976562 -96.988281 104.75 -99.8125 C 85.9375 -104.28125 70.535156 -108.75 58.546875 -113.21875 C 46.554688 -117.6875 36.269531 -124.859375 27.6875 -134.734375 C 19.101562 -144.609375 14.8125 -157.773438 14.8125 -174.234375 C 14.8125 -188.578125 18.691406 -201.566406 26.453125 -213.203125 C 34.210938 -224.847656 45.910156 -234.078125 61.546875 -240.890625 C 77.179688 -247.710938 96.285156 -251.125 118.859375 -251.125 C 134.609375 -251.125 150.007812 -249.242188 165.0625 -245.484375 C 180.113281 -241.722656 193.28125 -236.3125 204.5625 -229.25 L 186.9375 -185.875 C 164.125 -198.800781 141.316406 -205.265625 118.515625 -205.265625 C 102.523438 -205.265625 90.707031 -202.675781 83.0625 -197.5 C 75.414062 -192.332031 71.59375 -185.519531 71.59375 -177.0625 C 71.59375 -168.59375 76 -162.300781 84.8125 -158.1875 C 93.632812 -154.070312 107.097656 -150.015625 125.203125 -146.015625 C 144.015625 -141.546875 159.414062 -137.078125 171.40625 -132.609375 C 183.40625 -128.148438 193.695312 -121.097656 202.28125 -111.453125 C 210.863281 -101.816406 215.15625 -88.765625 215.15625 -72.296875 C 215.15625 -58.191406 211.210938 -45.316406 203.328125 -33.671875 C 195.453125 -22.035156 183.632812 -12.804688 167.875 -5.984375 C 152.125 0.828125 132.960938 4.234375 110.390625 4.234375 Z M 110.390625 4.234375 "/></g></g></g></g></g></g></g></g></svg>